<mxfile host="app.diagrams.net" modified="2021-07-25T16:23:10.848Z" agent="5.0 (Macintosh; Intel Mac OS X 10_15_7) AppleWebKit/537.36 (KHTML, like Gecko) Chrome/92.0.4515.107 Safari/537.36" etag="h9O_jcQ5SshOVP2ikdeN" version="14.9.2" type="github">
  <diagram id="gXM7VHkgyXtGiOQYBV_e" name="Page-1">
    <mxGraphModel dx="1213" dy="1879" grid="1" gridSize="10" guides="1" tooltips="1" connect="1" arrows="1" fold="1" page="1" pageScale="1" pageWidth="827" pageHeight="1169" math="0" shadow="0">
      <root>
        <mxCell id="0" />
        <mxCell id="1" parent="0" />
        <mxCell id="dyTOj_6wtNoAevscZc63-8" style="edgeStyle=orthogonalEdgeStyle;rounded=0;orthogonalLoop=1;jettySize=auto;html=1;entryX=0.009;entryY=0.522;entryDx=0;entryDy=0;entryPerimeter=0;fontSize=10;" edge="1" parent="1" source="Q1_bQzgm5_uvBT0ScGIU-1" target="Q1_bQzgm5_uvBT0ScGIU-2">
          <mxGeometry relative="1" as="geometry" />
        </mxCell>
        <mxCell id="Q1_bQzgm5_uvBT0ScGIU-1" value="Actor" style="shape=umlActor;verticalLabelPosition=bottom;verticalAlign=top;html=1;" parent="1" vertex="1">
          <mxGeometry x="320" y="-50" width="30" height="60" as="geometry" />
        </mxCell>
        <mxCell id="Q1_bQzgm5_uvBT0ScGIU-14" style="edgeStyle=orthogonalEdgeStyle;rounded=0;orthogonalLoop=1;jettySize=auto;html=1;exitX=0;exitY=0;exitDx=80;exitDy=65;exitPerimeter=0;entryX=0;entryY=0.542;entryDx=0;entryDy=0;entryPerimeter=0;" parent="1" source="Q1_bQzgm5_uvBT0ScGIU-2" target="Q1_bQzgm5_uvBT0ScGIU-3" edge="1">
          <mxGeometry relative="1" as="geometry" />
        </mxCell>
        <mxCell id="Q1_bQzgm5_uvBT0ScGIU-2" value="&lt;div&gt;&lt;span&gt;UI&lt;/span&gt;&lt;/div&gt;" style="verticalAlign=middle;align=center;spacingTop=8;spacingLeft=2;spacingRight=12;shape=cube;size=10;direction=south;fontStyle=4;html=1;labelPosition=center;verticalLabelPosition=middle;" parent="1" vertex="1">
          <mxGeometry x="285" y="100" width="120" height="80" as="geometry" />
        </mxCell>
        <mxCell id="Q1_bQzgm5_uvBT0ScGIU-27" style="edgeStyle=orthogonalEdgeStyle;rounded=0;orthogonalLoop=1;jettySize=auto;html=1;exitX=0;exitY=0;exitDx=80;exitDy=65;exitPerimeter=0;entryX=0;entryY=0;entryDx=45;entryDy=120;entryPerimeter=0;" parent="1" source="Q1_bQzgm5_uvBT0ScGIU-3" target="Q1_bQzgm5_uvBT0ScGIU-4" edge="1">
          <mxGeometry relative="1" as="geometry">
            <Array as="points">
              <mxPoint x="335" y="350" />
              <mxPoint x="70" y="350" />
              <mxPoint x="70" y="675" />
            </Array>
          </mxGeometry>
        </mxCell>
        <mxCell id="Q1_bQzgm5_uvBT0ScGIU-29" style="edgeStyle=orthogonalEdgeStyle;rounded=0;orthogonalLoop=1;jettySize=auto;html=1;exitX=0;exitY=0;exitDx=80;exitDy=65;exitPerimeter=0;entryX=0;entryY=0;entryDx=0;entryDy=55;entryPerimeter=0;" parent="1" source="Q1_bQzgm5_uvBT0ScGIU-3" target="Q1_bQzgm5_uvBT0ScGIU-8" edge="1">
          <mxGeometry relative="1" as="geometry">
            <Array as="points">
              <mxPoint x="310" y="350" />
              <mxPoint x="355" y="350" />
            </Array>
          </mxGeometry>
        </mxCell>
        <mxCell id="Q1_bQzgm5_uvBT0ScGIU-3" value="&lt;div&gt;&lt;span&gt;Presentation&lt;/span&gt;&lt;/div&gt;" style="verticalAlign=middle;align=center;spacingTop=8;spacingLeft=2;spacingRight=12;shape=cube;size=10;direction=south;fontStyle=4;html=1;labelPosition=center;verticalLabelPosition=middle;" parent="1" vertex="1">
          <mxGeometry x="280" y="225" width="120" height="80" as="geometry" />
        </mxCell>
        <mxCell id="Q1_bQzgm5_uvBT0ScGIU-18" style="edgeStyle=orthogonalEdgeStyle;rounded=0;orthogonalLoop=1;jettySize=auto;html=1;exitX=0;exitY=0;exitDx=35;exitDy=0;exitPerimeter=0;entryX=0;entryY=0;entryDx=80;entryDy=65;entryPerimeter=0;" parent="1" source="Q1_bQzgm5_uvBT0ScGIU-4" target="Q1_bQzgm5_uvBT0ScGIU-5" edge="1">
          <mxGeometry relative="1" as="geometry" />
        </mxCell>
        <mxCell id="Q1_bQzgm5_uvBT0ScGIU-4" value="Infrastructure" style="verticalAlign=middle;align=center;spacingTop=8;spacingLeft=2;spacingRight=12;shape=cube;size=10;direction=south;fontStyle=4;html=1;labelPosition=center;verticalLabelPosition=middle;" parent="1" vertex="1">
          <mxGeometry x="280" y="630" width="120" height="80" as="geometry" />
        </mxCell>
        <mxCell id="Q1_bQzgm5_uvBT0ScGIU-5" value="Domain" style="verticalAlign=middle;align=center;spacingTop=8;spacingLeft=2;spacingRight=12;shape=cube;size=10;direction=south;fontStyle=4;html=1;labelPosition=center;verticalLabelPosition=middle;" parent="1" vertex="1">
          <mxGeometry x="480" y="530" width="120" height="80" as="geometry" />
        </mxCell>
        <mxCell id="Q1_bQzgm5_uvBT0ScGIU-22" style="edgeStyle=orthogonalEdgeStyle;rounded=0;orthogonalLoop=1;jettySize=auto;html=1;exitX=0;exitY=0;exitDx=35;exitDy=0;exitPerimeter=0;entryX=0;entryY=0;entryDx=0;entryDy=55;entryPerimeter=0;" parent="1" source="Q1_bQzgm5_uvBT0ScGIU-8" target="Q1_bQzgm5_uvBT0ScGIU-5" edge="1">
          <mxGeometry relative="1" as="geometry" />
        </mxCell>
        <mxCell id="Q1_bQzgm5_uvBT0ScGIU-23" style="edgeStyle=orthogonalEdgeStyle;rounded=0;orthogonalLoop=1;jettySize=auto;html=1;exitX=0;exitY=0;exitDx=80;exitDy=65;exitPerimeter=0;entryX=0;entryY=0;entryDx=0;entryDy=55;entryPerimeter=0;" parent="1" source="Q1_bQzgm5_uvBT0ScGIU-8" target="Q1_bQzgm5_uvBT0ScGIU-4" edge="1">
          <mxGeometry relative="1" as="geometry" />
        </mxCell>
        <mxCell id="Q1_bQzgm5_uvBT0ScGIU-8" value="&lt;div&gt;&lt;span&gt;Application&lt;/span&gt;&lt;/div&gt;" style="verticalAlign=middle;align=center;spacingTop=8;spacingLeft=2;spacingRight=12;shape=cube;size=10;direction=south;fontStyle=4;html=1;labelPosition=center;verticalLabelPosition=middle;" parent="1" vertex="1">
          <mxGeometry x="300" y="425" width="120" height="80" as="geometry" />
        </mxCell>
        <mxCell id="Q1_bQzgm5_uvBT0ScGIU-12" value="Hooks" style="shape=folder;fontStyle=1;spacingTop=10;tabWidth=40;tabHeight=14;tabPosition=left;html=1;" parent="1" vertex="1">
          <mxGeometry x="190" y="240" width="70" height="50" as="geometry" />
        </mxCell>
        <mxCell id="Q1_bQzgm5_uvBT0ScGIU-19" value="State&lt;br style=&quot;font-size: 10px&quot;&gt;&lt;font style=&quot;font-weight: normal ; font-size: 8px&quot;&gt;easy-peasy&lt;/font&gt;" style="shape=folder;fontStyle=1;spacingTop=10;tabWidth=40;tabHeight=14;tabPosition=left;html=1;" parent="1" vertex="1">
          <mxGeometry x="225" y="505" width="90" height="50" as="geometry" />
        </mxCell>
        <mxCell id="Q1_bQzgm5_uvBT0ScGIU-26" value="Routing&lt;br style=&quot;font-size: 10px&quot;&gt;&lt;font style=&quot;font-weight: normal ; font-size: 8px&quot;&gt;React Router&lt;/font&gt;" style="shape=folder;fontStyle=1;spacingTop=10;tabWidth=40;tabHeight=14;tabPosition=left;html=1;" parent="1" vertex="1">
          <mxGeometry x="170" y="440" width="90" height="50" as="geometry" />
        </mxCell>
        <mxCell id="Q1_bQzgm5_uvBT0ScGIU-28" value="Components&lt;br style=&quot;font-size: 8px&quot;&gt;&lt;span style=&quot;font-weight: normal&quot;&gt;&lt;font style=&quot;font-size: 8px&quot;&gt;React Components&lt;/font&gt;&lt;/span&gt;" style="shape=folder;fontStyle=1;spacingTop=10;tabWidth=40;tabHeight=14;tabPosition=left;html=1;" parent="1" vertex="1">
          <mxGeometry x="180" y="130" width="90" height="50" as="geometry" />
        </mxCell>
        <mxCell id="Q1_bQzgm5_uvBT0ScGIU-32" value="Analytics&lt;br style=&quot;font-size: 8px&quot;&gt;&lt;font size=&quot;1&quot;&gt;&lt;span style=&quot;font-weight: normal ; font-size: 8px&quot;&gt;GA/MixPanel&lt;/span&gt;&lt;/font&gt;" style="shape=folder;fontStyle=1;spacingTop=10;tabWidth=40;tabHeight=14;tabPosition=left;html=1;" parent="1" vertex="1">
          <mxGeometry x="230" y="720" width="90" height="50" as="geometry" />
        </mxCell>
        <mxCell id="Q1_bQzgm5_uvBT0ScGIU-33" value="Rest API&lt;br style=&quot;font-size: 8px&quot;&gt;&lt;font style=&quot;font-weight: normal ; font-size: 8px&quot;&gt;fetch/axios&lt;/font&gt;" style="shape=folder;fontStyle=1;spacingTop=10;tabWidth=40;tabHeight=14;tabPosition=left;html=1;" parent="1" vertex="1">
          <mxGeometry x="340" y="720" width="90" height="50" as="geometry" />
        </mxCell>
        <mxCell id="Q1_bQzgm5_uvBT0ScGIU-34" value="Entities" style="shape=folder;fontStyle=1;spacingTop=10;tabWidth=40;tabHeight=14;tabPosition=left;html=1;" parent="1" vertex="1">
          <mxGeometry x="610" y="505" width="90" height="50" as="geometry" />
        </mxCell>
        <mxCell id="Q1_bQzgm5_uvBT0ScGIU-35" value="Use Cases" style="shape=folder;fontStyle=1;spacingTop=10;tabWidth=40;tabHeight=14;tabPosition=left;html=1;" parent="1" vertex="1">
          <mxGeometry x="610" y="580" width="90" height="50" as="geometry" />
        </mxCell>
        <mxCell id="dyTOj_6wtNoAevscZc63-1" value="Context&lt;br style=&quot;font-size: 10px&quot;&gt;&lt;font size=&quot;1&quot;&gt;&lt;span style=&quot;font-weight: normal ; font-size: 8px&quot;&gt;React Context&lt;/span&gt;&lt;/font&gt;" style="shape=folder;fontStyle=1;spacingTop=10;tabWidth=40;tabHeight=14;tabPosition=left;html=1;" vertex="1" parent="1">
          <mxGeometry x="210" y="375" width="90" height="50" as="geometry" />
        </mxCell>
        <mxCell id="dyTOj_6wtNoAevscZc63-2" value="Button" style="ellipse;shape=umlEntity;whiteSpace=wrap;html=1;fontSize=8;" vertex="1" parent="1">
          <mxGeometry x="414" y="100" width="50" height="50" as="geometry" />
        </mxCell>
        <mxCell id="dyTOj_6wtNoAevscZc63-10" value="useButton" style="ellipse;shape=umlEntity;whiteSpace=wrap;html=1;fontSize=8;" vertex="1" parent="1">
          <mxGeometry x="414" y="240" width="50" height="50" as="geometry" />
        </mxCell>
      </root>
    </mxGraphModel>
  </diagram>
</mxfile>
